<svg xmlns="http://www.w3.org/2000/svg" width="32.533" height="40" viewBox="0 0 32.533 40"><path d="M1099.86,423.195l-.021-.284a28.252,28.252,0,0,0-17.5-24.235,7.052,7.052,0,0,0,.721-2.74h0l0-.022a15.385,15.385,0,0,0-1.655-7.816l-.081-.158-.152.092-2.224,1.35a8.881,8.881,0,0,0-7.041,0l-2.225-1.35-.152-.092-.081.158a15.443,15.443,0,0,0-1.676,7.223,23.122,23.122,0,0,0,6.859,16.252,4.384,4.384,0,0,1,1.256,3.625l-.644,5.28-.014.116.1.052a10.955,10.955,0,0,0,1.26.535l-2.538,4.775h-5.831l-.043.1-.75,1.653-.105.233h20.484l-.084-.223-.623-1.654-.04-.107h-3.683l1.62-4.239c.644-.089,1.29-.212,1.922-.364l.126-.03v-1.661a27.1,27.1,0,0,1,3.112,3.555,3.193,3.193,0,0,0,1.7,1.183,6.83,6.83,0,0,0,5.4-.727l.116-.071-.048-.128-.713-1.925c.981.531,1.983,1.042,2.986,1.523Zm-29.77-33.537,1.792.933.066.034.069-.026a9.464,9.464,0,0,1,6.819,0l.07.026.066-.034,1.787-.932a14.221,14.221,0,0,1,1.063,6.19,5.855,5.855,0,0,1-2.953,4.789,6.951,6.951,0,0,1-6.886,0,5.855,5.855,0,0,1-2.953-4.788A14.234,14.234,0,0,1,1070.091,389.658Zm6.479,30.19.7-5.758c.749.67,1.523,1.327,2.3,1.956a2.716,2.716,0,0,1,.608.689l-.836,3.788A9.426,9.426,0,0,1,1076.569,419.848Zm4.683,6.106h-4.936l2.272-4.277a10.893,10.893,0,0,0,1.586.116h.159l.028-.129.6-2.724.892,2.849.036.114h.119l.265,0c.175,0,.351,0,.526-.007Zm12.475-2.526a5.576,5.576,0,0,1-1.525-.212,1.94,1.94,0,0,1-1.041-.722,28.367,28.367,0,0,0-5.078-5.321l-.269-.216v3.377a18.569,18.569,0,0,1-3.014.331l-1.157-3.687a3.933,3.933,0,0,0-1.292-1.894,57.5,57.5,0,0,1-5.122-4.665l-.034-.035h0a21.98,21.98,0,0,1-5.552-10.056,7.083,7.083,0,0,0,1.731,1.386,8.185,8.185,0,0,0,8.108,0,7.01,7.01,0,0,0,.659-.427,9.516,9.516,0,0,0,2.481,10.276,69.349,69.349,0,0,0,12.328,9.067l.887,2.387A5.557,5.557,0,0,1,1093.727,423.428Zm-10.044-12.577-.218-.2a8.32,8.32,0,0,1-1.269-10.692A27.3,27.3,0,0,1,1098.4,421.1,67.727,67.727,0,0,1,1083.683,410.851Z" transform="translate(-1067.328 -387.939)"></path><path d="M1084.226,397.46a.812.812,0,1,0-.812-.812A.812.812,0,0,0,1084.226,397.46Z" transform="translate(-1072.796 -390.624)"></path><path d="M1074.14,397.46a.812.812,0,1,0-.812-.812A.812.812,0,0,0,1074.14,397.46Z" transform="translate(-1069.367 -390.624)"></path><path d="M1073.406,398.141a2.23,2.23,0,0,0,1.739-.836l.792,2.346h0l.053.157.594,1.753.157.461.156-.461.54-1.595h0l.055-.158.842-2.5a2.223,2.223,0,0,0,3.958-1.387,2.225,2.225,0,0,0-2.221-2.225,9.411,9.411,0,0,0-1.754.167l-.1.019-.028.1-1.447,4.981-1.447-4.983-.012-.041-.03-.03-.036-.036-.052-.012a9.423,9.423,0,0,0-1.754-.167h0a2.223,2.223,0,0,0,0,4.447Zm6.664-3.463a1.241,1.241,0,1,1-1.242,1.241A1.241,1.241,0,0,1,1080.07,394.678Zm-6.657,0a1.243,1.243,0,0,1,1.241,1.244h0a1.242,1.242,0,0,1-1.244,1.241h0a1.243,1.243,0,1,1,0-2.486Z" transform="translate(-1068.639 -389.896)"></path></svg>